<?xml version="1.0" encoding="UTF-8" standalone="no"?><svg xmlns="http://www.w3.org/2000/svg" xmlns:xlink="http://www.w3.org/1999/xlink" contentScriptType="application/ecmascript" contentStyleType="text/css" height="681px" preserveAspectRatio="none" style="width:718px;height:681px;" version="1.1" viewBox="0 0 718 681" width="718px" zoomAndPan="magnify"><defs><filter height="300%" id="frz008mro527s" width="300%" x="-1" y="-1"><feGaussianBlur result="blurOut" stdDeviation="2.0"/><feColorMatrix in="blurOut" result="blurOut2" type="matrix" values="0 0 0 0 0 0 0 0 0 0 0 0 0 0 0 0 0 0 .4 0"/><feOffset dx="4.0" dy="4.0" in="blurOut2" result="blurOut3"/><feBlend in="SourceGraphic" in2="blurOut3" mode="normal"/></filter></defs><g><ellipse cx="178.5" cy="48.6982" fill="#008000" filter="url(#frz008mro527s)" rx="10" ry="10" style="stroke:none;stroke-width:1.0;"/><rect fill="#FFFFFF" filter="url(#frz008mro527s)" height="47.9375" rx="12.5" ry="12.5" style="stroke:#000000;stroke-width:1.5;" width="110" x="123.5" y="78.6982"/><text fill="#000000" font-family="sans-serif" font-size="12" lengthAdjust="spacingAndGlyphs" textLength="61" x="133.5" y="99.8369">Ingresar a</text><text fill="#000000" font-family="sans-serif" font-size="12" lengthAdjust="spacingAndGlyphs" textLength="90" x="133.5" y="113.8057">aplicación web</text><polygon fill="#FFFFFF" filter="url(#frz008mro527s)" points="108.5,350.4482,248.5,350.4482,260.5,362.4482,248.5,374.4482,108.5,374.4482,96.5,362.4482,108.5,350.4482" style="stroke:#FF0000;stroke-width:1.5;"/><text fill="#000000" font-family="sans-serif" font-size="11" lengthAdjust="spacingAndGlyphs" textLength="140" x="108.5" y="366.2563">¿Promoción interesante?</text><text fill="#000000" font-family="sans-serif" font-size="11" lengthAdjust="spacingAndGlyphs" textLength="9" x="87.5" y="359.854">sí</text><text fill="#000000" font-family="sans-serif" font-size="11" lengthAdjust="spacingAndGlyphs" textLength="14" x="260.5" y="359.854">no</text><rect fill="#FFFFFF" filter="url(#frz008mro527s)" height="33.9688" rx="12.5" ry="12.5" style="stroke:#000000;stroke-width:1.5;" width="131" x="21" y="384.4482"/><text fill="#000000" font-family="sans-serif" font-size="12" lengthAdjust="spacingAndGlyphs" textLength="111" x="31" y="405.5869">Comprar producto</text><ellipse cx="86.5" cy="448.417" fill="#FFFFFF" filter="url(#frz008mro527s)" rx="10" ry="10" style="stroke:#000000;stroke-width:1.5;"/><path d="M86.6094,444.5889 L85,448.9326 L88.2188,448.9326 L86.6094,444.5889 Z M85.9375,443.417 L87.2813,443.417 L90.6094,452.167 L89.375,452.167 L88.5781,449.917 L84.6406,449.917 L83.8438,452.167 L82.5938,452.167 L85.9375,443.417 Z " fill="#000000"/><rect fill="#FFFFFF" filter="url(#frz008mro527s)" height="33.9688" rx="12.5" ry="12.5" style="stroke:#000000;stroke-width:1.5;" width="109" x="216" y="384.4482"/><text fill="#000000" font-family="sans-serif" font-size="12" lengthAdjust="spacingAndGlyphs" textLength="89" x="226" y="405.5869">Cerrar ventana</text><ellipse cx="270.5" cy="448.417" fill="#FFFFFF" filter="url(#frz008mro527s)" rx="10" ry="10" style="stroke:#000000;stroke-width:1.5;"/><path d="M270.6094,444.5889 L269,448.9326 L272.2188,448.9326 L270.6094,444.5889 Z M269.9375,443.417 L271.2813,443.417 L274.6094,452.167 L273.375,452.167 L272.5781,449.917 L268.6406,449.917 L267.8438,452.167 L266.5938,452.167 L269.9375,443.417 Z " fill="#000000"/><line style="stroke:#000000;stroke-width:2.0;" x1="15" x2="15" y1="12.7451" y2="664.292"/><rect fill="#FAEBD7" height="651.5469" style="stroke:#FAEBD7;stroke-width:1.0;" width="173" x="335" y="12.7451"/><rect fill="#FFFFFF" filter="url(#frz008mro527s)" height="47.9375" rx="12.5" ry="12.5" style="stroke:#000000;stroke-width:1.5;" width="141" x="349" y="146.6357"/><text fill="#000000" font-family="sans-serif" font-size="12" lengthAdjust="spacingAndGlyphs" textLength="121" x="359" y="167.7744">Seleccionar anuncio</text><text fill="#000000" font-family="sans-serif" font-size="12" lengthAdjust="spacingAndGlyphs" textLength="75" x="359" y="181.7432">de producto</text><rect fill="#FFFFFF" filter="url(#frz008mro527s)" height="47.9375" rx="12.5" ry="12.5" style="stroke:#000000;stroke-width:1.5;" width="117" x="361" y="282.5107"/><text fill="#000000" font-family="sans-serif" font-size="12" lengthAdjust="spacingAndGlyphs" textLength="97" x="371" y="303.6494">Mostrar ventana</text><text fill="#000000" font-family="sans-serif" font-size="12" lengthAdjust="spacingAndGlyphs" textLength="69" x="371" y="317.6182">del anuncio</text><ellipse cx="419.5" cy="478.417" fill="#FFFFFF" filter="url(#frz008mro527s)" rx="10" ry="10" style="stroke:#000000;stroke-width:1.5;"/><path d="M419.6094,474.5889 L418,478.9326 L421.2188,478.9326 L419.6094,474.5889 Z M418.9375,473.417 L420.2813,473.417 L423.6094,482.167 L422.375,482.167 L421.5781,479.917 L417.6406,479.917 L416.8438,482.167 L415.5938,482.167 L418.9375,473.417 Z " fill="#000000"/><rect fill="#FFFFFF" filter="url(#frz008mro527s)" height="47.9375" rx="12.5" ry="12.5" style="stroke:#000000;stroke-width:1.5;" width="157" x="341" y="508.417"/><text fill="#000000" font-family="sans-serif" font-size="12" lengthAdjust="spacingAndGlyphs" textLength="137" x="351" y="529.5557">Asignar recompensa o</text><text fill="#000000" font-family="sans-serif" font-size="12" lengthAdjust="spacingAndGlyphs" textLength="123" x="351" y="543.5244">penalidad al anuncio</text><line style="stroke:#000000;stroke-width:2.0;" x1="335" x2="335" y1="12.7451" y2="664.292"/><rect fill="#90EE90" height="651.5469" style="stroke:#90EE90;stroke-width:1.0;" width="190" x="508" y="12.7451"/><rect fill="#87CEFA" filter="url(#frz008mro527s)" height="47.9375" rx="12.5" ry="12.5" style="stroke:#000000;stroke-width:1.5;" width="166" x="518" y="214.5732"/><text fill="#000000" font-family="sans-serif" font-size="12" lengthAdjust="spacingAndGlyphs" textLength="146" x="528" y="235.7119">Obtener anuncio óptimo</text><text fill="#000000" font-family="sans-serif" font-size="12" lengthAdjust="spacingAndGlyphs" textLength="112" x="528" y="249.6807">con algoritmo UCB</text><rect fill="#87CEFA" filter="url(#frz008mro527s)" height="47.9375" rx="12.5" ry="12.5" style="stroke:#000000;stroke-width:1.5;" width="174" x="514" y="576.3545"/><text fill="#000000" font-family="sans-serif" font-size="12" lengthAdjust="spacingAndGlyphs" textLength="154" x="524" y="597.4932">Guardar valor y actualizar</text><text fill="#000000" font-family="sans-serif" font-size="12" lengthAdjust="spacingAndGlyphs" textLength="119" x="524" y="611.4619">indicadores en UCB</text><ellipse cx="601" cy="654.292" fill="#FFFFFF" filter="url(#frz008mro527s)" rx="10" ry="10" style="stroke:#FF0000;stroke-width:1.5;"/><line style="stroke:#FF0000;stroke-width:2.5;" x1="594.8128" x2="607.1872" y1="648.1048" y2="660.4792"/><line style="stroke:#FF0000;stroke-width:2.5;" x1="607.1872" x2="594.8128" y1="648.1048" y2="660.4792"/><line style="stroke:#000000;stroke-width:2.0;" x1="508" x2="508" y1="12.7451" y2="664.292"/><line style="stroke:#000000;stroke-width:2.0;" x1="698" x2="698" y1="12.7451" y2="664.292"/><line style="stroke:#000000;stroke-width:1.5;" x1="178.5" x2="178.5" y1="58.6982" y2="78.6982"/><polygon fill="#000000" points="174.5,68.6982,178.5,78.6982,182.5,68.6982,178.5,72.6982" style="stroke:#000000;stroke-width:1.0;"/><line style="stroke:#000000;stroke-width:1.5;" x1="86.5" x2="86.5" y1="418.417" y2="438.417"/><polygon fill="#000000" points="82.5,428.417,86.5,438.417,90.5,428.417,86.5,432.417" style="stroke:#000000;stroke-width:1.0;"/><line style="stroke:#000000;stroke-width:1.5;" x1="270.5" x2="270.5" y1="418.417" y2="438.417"/><polygon fill="#000000" points="266.5,428.417,270.5,438.417,274.5,428.417,270.5,432.417" style="stroke:#000000;stroke-width:1.0;"/><line style="stroke:#000000;stroke-width:1.5;" x1="96.5" x2="86.5" y1="362.4482" y2="362.4482"/><line style="stroke:#000000;stroke-width:1.5;" x1="86.5" x2="86.5" y1="362.4482" y2="384.4482"/><polygon fill="#000000" points="82.5,374.4482,86.5,384.4482,90.5,374.4482,86.5,378.4482" style="stroke:#000000;stroke-width:1.0;"/><line style="stroke:#000000;stroke-width:1.5;" x1="260.5" x2="270.5" y1="362.4482" y2="362.4482"/><line style="stroke:#000000;stroke-width:1.5;" x1="270.5" x2="270.5" y1="362.4482" y2="384.4482"/><polygon fill="#000000" points="266.5,374.4482,270.5,384.4482,274.5,374.4482,270.5,378.4482" style="stroke:#000000;stroke-width:1.0;"/><line style="stroke:#000000;stroke-width:1.5;" x1="419.5" x2="419.5" y1="488.417" y2="508.417"/><polygon fill="#000000" points="415.5,498.417,419.5,508.417,423.5,498.417,419.5,502.417" style="stroke:#000000;stroke-width:1.0;"/><line style="stroke:#000000;stroke-width:1.5;" x1="601" x2="601" y1="624.292" y2="644.292"/><polygon fill="#000000" points="597,634.292,601,644.292,605,634.292,601,638.292" style="stroke:#000000;stroke-width:1.0;"/><line style="stroke:#000000;stroke-width:1.5;" x1="178.5" x2="178.5" y1="126.6357" y2="131.6357"/><line style="stroke:#000000;stroke-width:1.5;" x1="178.5" x2="419.5" y1="131.6357" y2="131.6357"/><line style="stroke:#000000;stroke-width:1.5;" x1="419.5" x2="419.5" y1="131.6357" y2="146.6357"/><polygon fill="#000000" points="415.5,136.6357,419.5,146.6357,423.5,136.6357,419.5,140.6357" style="stroke:#000000;stroke-width:1.0;"/><line style="stroke:#000000;stroke-width:1.5;" x1="419.5" x2="419.5" y1="194.5732" y2="199.5732"/><line style="stroke:#000000;stroke-width:1.5;" x1="419.5" x2="601" y1="199.5732" y2="199.5732"/><line style="stroke:#000000;stroke-width:1.5;" x1="601" x2="601" y1="199.5732" y2="214.5732"/><polygon fill="#000000" points="597,204.5732,601,214.5732,605,204.5732,601,208.5732" style="stroke:#000000;stroke-width:1.0;"/><line style="stroke:#000000;stroke-width:1.5;" x1="601" x2="601" y1="262.5107" y2="267.5107"/><line style="stroke:#000000;stroke-width:1.5;" x1="601" x2="419.5" y1="267.5107" y2="267.5107"/><line style="stroke:#000000;stroke-width:1.5;" x1="419.5" x2="419.5" y1="267.5107" y2="282.5107"/><polygon fill="#000000" points="415.5,272.5107,419.5,282.5107,423.5,272.5107,419.5,276.5107" style="stroke:#000000;stroke-width:1.0;"/><line style="stroke:#000000;stroke-width:1.5;" x1="419.5" x2="419.5" y1="330.4482" y2="335.4482"/><line style="stroke:#000000;stroke-width:1.5;" x1="419.5" x2="178.5" y1="335.4482" y2="335.4482"/><line style="stroke:#000000;stroke-width:1.5;" x1="178.5" x2="178.5" y1="335.4482" y2="350.4482"/><polygon fill="#000000" points="174.5,340.4482,178.5,350.4482,182.5,340.4482,178.5,344.4482" style="stroke:#000000;stroke-width:1.0;"/><line style="stroke:#000000;stroke-width:1.5;" x1="419.5" x2="419.5" y1="556.3545" y2="561.3545"/><line style="stroke:#000000;stroke-width:1.5;" x1="419.5" x2="601" y1="561.3545" y2="561.3545"/><line style="stroke:#000000;stroke-width:1.5;" x1="601" x2="601" y1="561.3545" y2="576.3545"/><polygon fill="#000000" points="597,566.3545,601,576.3545,605,566.3545,601,570.3545" style="stroke:#000000;stroke-width:1.0;"/><text fill="#000000" font-family="sans-serif" font-size="18" lengthAdjust="spacingAndGlyphs" textLength="64" x="143" y="29.4531">Cliente</text><text fill="#000000" font-family="sans-serif" font-size="18" lengthAdjust="spacingAndGlyphs" textLength="99" x="372" y="29.4531">Portal web</text><text fill="#000000" font-family="sans-serif" font-size="18" lengthAdjust="spacingAndGlyphs" textLength="73" x="566.5" y="29.4531">Servicio</text><!--MD5=[0b6f89031576d564484b6ad36f51491f]
@startuml
!include https://gist.githubusercontent.com/cccg8105/4054e13aa1139ab583f7be54fb5c6960/raw/3c760a2f5d568343272174d35741e4a7f2741b5e/styles.puml

|Cliente|
start
:Ingresar a 
aplicación web;
|#AntiqueWhite|Portal web|
:Seleccionar anuncio 
de producto;
|#LightGreen|Servicio|
#LightSkyBlue:Obtener anuncio óptimo
con algoritmo UCB;
|Portal web|
:Mostrar ventana
del anuncio;
|Cliente|
if (¿Promoción interesante?) then (sí)
:Comprar producto;
(A)
detach
else (no)
|Cliente|
:Cerrar ventana;
(A)
detach
endif
|Portal web|
(A)
:Asignar recompensa o 
penalidad al anuncio;
|Servicio|
#LightSkyBlue:Guardar valor y actualizar
indicadores en UCB;
end
@enduml

@startuml
skinparam usecase {
  backgroundColor skyblue
  BorderColor skyblue
  BackgroundColor<< Correct >> lightgreen
  BorderColor<< Correct >> lightgreen
  ArrowColor black
  ActorBorderColor black
  ActorFontName Courier
  BackgroundColor<< Error >> Antiquewhite
  BorderColor<< Error >> Antiquewhite
}
skinparam sequence {
  LifeLineBorderColor Green
  ArrowColor black
  ParticipantBorderColor black
  ParticipantBackgroundColor GreenYellow
  ParticipantFontColor black
}
skinparam actor {
  backgroundColor white
  borderColor slategray
}

skinparam entity {
  backgroundColor white
  borderColor slategray
}

skinparam state {
  StartColor green
  EndColor Red
  BackgroundColor white
  BackgroundColor<<Warning>> Olive
  BorderColor black
  ArrowColor Olive
  BarColor green
}
skinparam activity {
  StartColor green
  BarColor black
  EndColor red
  BackgroundColor white
  DiamondBackgroundColor white
  DiamondBorderColor red
  BorderColor black
  ArrowColor black
}
skinparam cloud {
  borderColor lightgray
  backgroundColor white
}
skinparam node {
  borderColor black
  backgroundColor Yellow
}
skinparam interface {
  borderColor black
  backgroundColor lime
}
skinparam component {
  borderColor slategray
  backgroundColor white
}
skinparam file {
  borderColor black
  backgroundColor white
}
skinparam queue {
  borderColor black
  backgroundColor springgreen
}
skinparam database {
  borderColor slategray
  backgroundColor white
}
skinparam agent {
  borderColor black
  backgroundColor white
}
skinparam rectangle {
  borderColor black
  backgroundColor white
}
skinparam card {
  borderColor black
  backgroundColor white
}
skinparam note {
  borderColor black
  backgroundColor lightCyan
}
skinparam title {
  FontSize 18
}

skinparam class {
  BackgroundColor white
  ArrowColor black
  BorderColor black
}

skinparam boundary {
  BackgroundColor white
  ArrowColor black
  BorderColor slategray
}

skinparam control {
  BackgroundColor white
  ArrowColor black
  BorderColor slategray
}

skinparam package {
  borderColor slategray
}

|Cliente|
start
:Ingresar a 
aplicación web;
|#AntiqueWhite|Portal web|
:Seleccionar anuncio 
de producto;
|#LightGreen|Servicio|
#LightSkyBlue:Obtener anuncio óptimo
con algoritmo UCB;
|Portal web|
:Mostrar ventana
del anuncio;
|Cliente|
if (¿Promoción interesante?) then (sí)
:Comprar producto;
(A)
detach
else (no)
|Cliente|
:Cerrar ventana;
(A)
detach
endif
|Portal web|
(A)
:Asignar recompensa o 
penalidad al anuncio;
|Servicio|
#LightSkyBlue:Guardar valor y actualizar
indicadores en UCB;
end
@enduml

PlantUML version 1.2020.24(Fri Dec 18 17:00:36 UTC 2020)
(GPL source distribution)
Java Runtime: Java(TM) SE Runtime Environment
JVM: Java HotSpot(TM) 64-Bit Server VM
Default Encoding: UTF-8
Language: en
Country: US
--></g></svg>