<?xml version="1.0" encoding="UTF-8" standalone="no"?><svg xmlns="http://www.w3.org/2000/svg" xmlns:xlink="http://www.w3.org/1999/xlink" contentScriptType="application/ecmascript" contentStyleType="text/css" height="194px" preserveAspectRatio="none" style="width:447px;height:194px;" version="1.1" viewBox="0 0 447 194" width="447px" zoomAndPan="magnify"><defs/><g><text fill="#000000" font-family="sans-serif" font-size="14" lengthAdjust="spacing" textLength="48" x="15.5" y="108.4951">option</text><text fill="#000000" font-family="sans-serif" font-size="14" lengthAdjust="spacing" textLength="0" x="86" y="108.4951"/><line style="stroke:#A80036;stroke-width:1.0;" x1="69" x2="69" y1="93.5" y2="113.7969"/><line style="stroke:#A80036;stroke-width:1.0;" x1="10" x2="91" y1="113.7969" y2="113.7969"/><text fill="#000000" font-family="sans-serif" font-size="14" lengthAdjust="spacing" textLength="49" x="15" y="128.792">reward</text><text fill="#000000" font-family="sans-serif" font-size="14" lengthAdjust="spacing" textLength="0" x="86" y="128.792"/><line style="stroke:#A80036;stroke-width:1.0;" x1="69" x2="69" y1="113.7969" y2="134.0938"/><rect fill="none" height="40.5938" rx="5" ry="5" style="stroke:#A80036;stroke-width:1.5;" width="81" x="10" y="93.5"/><text fill="#000000" font-family="sans-serif" font-size="14" lengthAdjust="spacing" textLength="20" x="133" y="93.9951">int</text><text fill="#000000" font-family="sans-serif" font-size="14" lengthAdjust="spacing" textLength="0" x="175" y="93.9951"/><line style="stroke:#A80036;stroke-width:1.0;" x1="158" x2="158" y1="79" y2="99.2969"/><rect fill="none" height="20.2969" rx="5" ry="5" style="stroke:#A80036;stroke-width:1.5;" width="52" x="128" y="79"/><text fill="#000000" font-family="sans-serif" font-size="14" lengthAdjust="spacing" textLength="0" x="234" y="49.4951"/><line style="stroke:#A80036;stroke-width:1.0;" x1="217" x2="239" y1="54.7969" y2="54.7969"/><text fill="#000000" font-family="sans-serif" font-size="14" lengthAdjust="spacing" textLength="0" x="234" y="69.792"/><line style="stroke:#A80036;stroke-width:1.0;" x1="217" x2="239" y1="75.0938" y2="75.0938"/><text fill="#000000" font-family="sans-serif" font-size="14" lengthAdjust="spacing" textLength="0" x="234" y="90.0889"/><rect fill="none" height="60.8906" rx="5" ry="5" style="stroke:#A80036;stroke-width:1.5;" width="22" x="217" y="34.5"/><rect fill="#CCFF02" height="20.2969" rx="2" ry="2" style="stroke:#CCFF02;stroke-width:1.0;" width="98" x="308" y="10"/><text fill="#000000" font-family="sans-serif" font-size="14" lengthAdjust="spacing" textLength="9" x="311.5" y="24.9951">0</text><text fill="#000000" font-family="sans-serif" font-size="14" lengthAdjust="spacing" textLength="71" x="330.5" y="24.9951">Anuncio A</text><line style="stroke:#A80036;stroke-width:1.0;" x1="325.5" x2="325.5" y1="10" y2="30.2969"/><rect fill="none" height="20.2969" rx="5" ry="5" style="stroke:#A80036;stroke-width:1.5;" width="100" x="306.5" y="10"/><rect fill="#CCFF02" height="20.2969" rx="2" ry="2" style="stroke:#CCFF02;stroke-width:1.0;" width="98" x="308" y="48"/><text fill="#000000" font-family="sans-serif" font-size="14" lengthAdjust="spacing" textLength="9" x="311.5" y="62.9951">1</text><text fill="#000000" font-family="sans-serif" font-size="14" lengthAdjust="spacing" textLength="71" x="330.5" y="62.9951">Anuncio B</text><line style="stroke:#A80036;stroke-width:1.0;" x1="325.5" x2="325.5" y1="48" y2="68.2969"/><rect fill="none" height="20.2969" rx="5" ry="5" style="stroke:#A80036;stroke-width:1.5;" width="100" x="306.5" y="48"/><rect fill="#CCFF02" height="20.2969" rx="2" ry="2" style="stroke:#CCFF02;stroke-width:1.0;" width="97" x="308.5" y="86"/><text fill="#000000" font-family="sans-serif" font-size="14" lengthAdjust="spacing" textLength="8" x="312" y="100.9951">2</text><text fill="#000000" font-family="sans-serif" font-size="14" lengthAdjust="spacing" textLength="71" x="330" y="100.9951">Anuncio C</text><line style="stroke:#A80036;stroke-width:1.0;" x1="325" x2="325" y1="86" y2="106.2969"/><rect fill="none" height="20.2969" rx="5" ry="5" style="stroke:#A80036;stroke-width:1.5;" width="99" x="307" y="86"/><text fill="#000000" font-family="sans-serif" font-size="14" lengthAdjust="spacing" textLength="20" x="133" y="143.9951">int</text><text fill="#000000" font-family="sans-serif" font-size="14" lengthAdjust="spacing" textLength="0" x="175" y="143.9951"/><line style="stroke:#A80036;stroke-width:1.0;" x1="158" x2="158" y1="129" y2="149.2969"/><rect fill="none" height="20.2969" rx="5" ry="5" style="stroke:#A80036;stroke-width:1.5;" width="52" x="128" y="129"/><text fill="#000000" font-family="sans-serif" font-size="14" lengthAdjust="spacing" textLength="0" x="234" y="139.4951"/><line style="stroke:#A80036;stroke-width:1.0;" x1="217" x2="239" y1="144.7969" y2="144.7969"/><text fill="#000000" font-family="sans-serif" font-size="14" lengthAdjust="spacing" textLength="0" x="234" y="159.792"/><rect fill="none" height="40.5938" rx="5" ry="5" style="stroke:#A80036;stroke-width:1.5;" width="22" x="217" y="124.5"/><text fill="#000000" font-family="sans-serif" font-size="14" lengthAdjust="spacing" textLength="9" x="297.5" y="138.9951">0</text><text fill="#000000" font-family="sans-serif" font-size="14" lengthAdjust="spacing" textLength="99" x="316.5" y="138.9951">Cerr贸 anuncio</text><line style="stroke:#A80036;stroke-width:1.0;" x1="311.5" x2="311.5" y1="124" y2="144.2969"/><rect fill="none" height="20.2969" rx="5" ry="5" style="stroke:#A80036;stroke-width:1.5;" width="128" x="292.5" y="124"/><text fill="#000000" font-family="sans-serif" font-size="14" lengthAdjust="spacing" textLength="9" x="283" y="176.9951">1</text><text fill="#000000" font-family="sans-serif" font-size="14" lengthAdjust="spacing" textLength="128" x="302" y="176.9951">Ingres贸 al anuncio</text><line style="stroke:#A80036;stroke-width:1.0;" x1="297" x2="297" y1="162" y2="182.2969"/><rect fill="none" height="20.2969" rx="5" ry="5" style="stroke:#A80036;stroke-width:1.5;" width="157" x="278" y="162"/><path d="M229,44 L242,44 C255.0699,44 283.999,37.883 309.4428,31.8253 " fill="none" style="stroke:#A80036;stroke-width:1.0;stroke-dasharray:3.0,3.0;"/><path d="M310.1573,34.7911 L311.6672,31.2895 L308.7284,28.8596 L316.8572,30.0391 L310.1573,34.7911 " fill="#A80036" style="stroke:#A80036;stroke-width:1.0;"/><ellipse cx="229" cy="44" fill="#A80036" rx="3" ry="3" style="stroke:#A80036;stroke-width:1.0;"/><path d="M229,64 L242,64 C260.6423,64 280.9757,63.19 299.2408,62.1652 " fill="none" style="stroke:#A80036;stroke-width:1.0;stroke-dasharray:3.0,3.0;"/><path d="M299.421,65.2413 L301.5478,62.03 L299.0605,59.0891 L306.931,61.7145 L299.421,65.2413 " fill="#A80036" style="stroke:#A80036;stroke-width:1.0;"/><ellipse cx="229" cy="64" fill="#A80036" rx="3" ry="3" style="stroke:#A80036;stroke-width:1.0;"/><path d="M229,85 L242,85 C260.79,85 281.2419,86.4989 299.5683,88.3901 " fill="none" style="stroke:#A80036;stroke-width:1.0;stroke-dasharray:3.0,3.0;"/><path d="M299.2358,91.4753 L301.8822,88.6395 L299.9008,85.3049 L307.2813,89.2214 L299.2358,91.4753 " fill="#A80036" style="stroke:#A80036;stroke-width:1.0;"/><ellipse cx="229" cy="85" fill="#A80036" rx="3" ry="3" style="stroke:#A80036;stroke-width:1.0;"/><path d="M168,89 L181,89 C191.6441,89 202.3275,84.1397 210.8593,78.7936 " fill="none" style="stroke:#A80036;stroke-width:1.0;stroke-dasharray:3.0,3.0;"/><path d="M212.5825,81.3292 L212.7611,77.5011 L209.136,76.2579 L217.1985,74.4854 L212.5825,81.3292 " fill="#A80036" style="stroke:#A80036;stroke-width:1.0;"/><ellipse cx="168" cy="89" fill="#A80036" rx="3" ry="3" style="stroke:#A80036;stroke-width:1.0;"/><path d="M79,103 L92,103 C101.4959,103 111.6155,101.3935 120.8465,99.2689 " fill="none" style="stroke:#A80036;stroke-width:1.0;stroke-dasharray:3.0,3.0;"/><path d="M121.5995,102.2737 L123.1,98.7042 L120.0934,96.2642 L128.3584,97.3863 L121.5995,102.2737 " fill="#A80036" style="stroke:#A80036;stroke-width:1.0;"/><ellipse cx="79" cy="103" fill="#A80036" rx="3" ry="3" style="stroke:#A80036;stroke-width:1.0;"/><path d="M229,134 L242,134 C255.9438,134 270.8471,134 285.1255,134 " fill="none" style="stroke:#A80036;stroke-width:1.0;stroke-dasharray:3.0,3.0;"/><path d="M285.1255,137.1432 L287.4829,134 L285.1255,130.8568 L292.9836,134 L285.1255,137.1432 " fill="#A80036" style="stroke:#A80036;stroke-width:1.0;"/><ellipse cx="229" cy="134" fill="#A80036" rx="3" ry="3" style="stroke:#A80036;stroke-width:1.0;"/><path d="M229,155 L242,155 C261.8737,155 283.4853,157.5587 302.495,160.6907 " fill="none" style="stroke:#A80036;stroke-width:1.0;stroke-dasharray:3.0,3.0;"/><path d="M301.9859,163.6597 L304.7218,161.0725 L303.0042,157.7216 L309.9176,161.9636 L301.9859,163.6597 " fill="#A80036" style="stroke:#A80036;stroke-width:1.0;"/><ellipse cx="229" cy="155" fill="#A80036" rx="3" ry="3" style="stroke:#A80036;stroke-width:1.0;"/><path d="M168,139 L181,139 C190.5459,139 201.0864,140.2075 209.808,141.5391 " fill="none" style="stroke:#A80036;stroke-width:1.0;stroke-dasharray:3.0,3.0;"/><path d="M209.3173,144.5061 L212.0333,141.9071 L210.2987,138.5721 L217.2256,142.7658 L209.3173,144.5061 " fill="#A80036" style="stroke:#A80036;stroke-width:1.0;"/><ellipse cx="168" cy="139" fill="#A80036" rx="3" ry="3" style="stroke:#A80036;stroke-width:1.0;"/><path d="M79,124 L92,124 C101.5305,124 111.6611,125.7212 120.8918,127.9976 " fill="none" style="stroke:#A80036;stroke-width:1.0;stroke-dasharray:3.0,3.0;"/><path d="M120.085,131.0012 L123.1445,128.6027 L121.6986,124.9939 L128.4009,130.0146 L120.085,131.0012 " fill="#A80036" style="stroke:#A80036;stroke-width:1.0;"/><ellipse cx="79" cy="124" fill="#A80036" rx="3" ry="3" style="stroke:#A80036;stroke-width:1.0;"/><!--MD5=[1760691818ce4d3c23f22774bf88775f]
@startjson
#highlight "option" / "int" / "0" / "0"
#highlight "option" / "int" / "1" / "1"
#highlight "option" / "int" / "2" / "2"

{
    "option": { "int": [{"0": "Anuncio A"},{"1": "Anuncio B"},{"2": "Anuncio C"}]},
    "reward": { "int": [{"0": "Cerr贸 anuncio"},{"1": "Ingres贸 al anuncio"}]}
}
@endjson

PlantUML version 1.2021.01beta3(Unknown compile time)
(GPL source distribution)
Java Runtime: Java(TM) SE Runtime Environment
JVM: Java HotSpot(TM) 64-Bit Server VM
Default Encoding: UTF-8
Language: en
Country: US
--></g></svg>