<?xml version="1.0" encoding="UTF-8" standalone="no"?><svg xmlns="http://www.w3.org/2000/svg" xmlns:xlink="http://www.w3.org/1999/xlink" contentScriptType="application/ecmascript" contentStyleType="text/css" height="118px" preserveAspectRatio="none" style="width:389px;height:118px;" version="1.1" viewBox="0 0 389 118" width="389px" zoomAndPan="magnify"><defs/><g><text fill="#000000" font-family="sans-serif" font-size="14" lengthAdjust="spacing" textLength="48" x="15" y="63.9951">option</text><text fill="#000000" font-family="sans-serif" font-size="14" lengthAdjust="spacing" textLength="0" x="85" y="63.9951"/><line style="stroke:#A80036;stroke-width:1.0;" x1="68" x2="68" y1="49" y2="69.2969"/><rect fill="none" height="20.2969" rx="5" ry="5" style="stroke:#A80036;stroke-width:1.5;" width="80" x="10" y="49"/><text fill="#000000" font-family="sans-serif" font-size="14" lengthAdjust="spacing" textLength="20" x="132" y="63.9951">int</text><text fill="#000000" font-family="sans-serif" font-size="14" lengthAdjust="spacing" textLength="0" x="174" y="63.9951"/><line style="stroke:#A80036;stroke-width:1.0;" x1="157" x2="157" y1="49" y2="69.2969"/><rect fill="none" height="20.2969" rx="5" ry="5" style="stroke:#A80036;stroke-width:1.5;" width="52" x="127" y="49"/><text fill="#000000" font-family="sans-serif" font-size="14" lengthAdjust="spacing" textLength="0" x="233" y="43.4951"/><line style="stroke:#A80036;stroke-width:1.0;" x1="216" x2="238" y1="48.7969" y2="48.7969"/><text fill="#000000" font-family="sans-serif" font-size="14" lengthAdjust="spacing" textLength="0" x="233" y="63.792"/><line style="stroke:#A80036;stroke-width:1.0;" x1="216" x2="238" y1="69.0938" y2="69.0938"/><text fill="#000000" font-family="sans-serif" font-size="14" lengthAdjust="spacing" textLength="0" x="233" y="84.0889"/><rect fill="none" height="60.8906" rx="5" ry="5" style="stroke:#A80036;stroke-width:1.5;" width="22" x="216" y="28.5"/><rect fill="#CCFF02" height="20.2969" rx="2" ry="2" style="stroke:#CCFF02;stroke-width:1.0;" width="98" x="278.5" y="10"/><text fill="#000000" font-family="sans-serif" font-size="14" lengthAdjust="spacing" textLength="9" x="282" y="24.9951">0</text><text fill="#000000" font-family="sans-serif" font-size="14" lengthAdjust="spacing" textLength="71" x="301" y="24.9951">Anuncio A</text><line style="stroke:#A80036;stroke-width:1.0;" x1="296" x2="296" y1="10" y2="30.2969"/><rect fill="none" height="20.2969" rx="5" ry="5" style="stroke:#A80036;stroke-width:1.5;" width="100" x="277" y="10"/><rect fill="#CCFF02" height="20.2969" rx="2" ry="2" style="stroke:#CCFF02;stroke-width:1.0;" width="98" x="278.5" y="48"/><text fill="#000000" font-family="sans-serif" font-size="14" lengthAdjust="spacing" textLength="9" x="282" y="62.9951">1</text><text fill="#000000" font-family="sans-serif" font-size="14" lengthAdjust="spacing" textLength="71" x="301" y="62.9951">Anuncio B</text><line style="stroke:#A80036;stroke-width:1.0;" x1="296" x2="296" y1="48" y2="68.2969"/><rect fill="none" height="20.2969" rx="5" ry="5" style="stroke:#A80036;stroke-width:1.5;" width="100" x="277" y="48"/><rect fill="#CCFF02" height="20.2969" rx="2" ry="2" style="stroke:#CCFF02;stroke-width:1.0;" width="97" x="279" y="86"/><text fill="#000000" font-family="sans-serif" font-size="14" lengthAdjust="spacing" textLength="8" x="282.5" y="100.9951">2</text><text fill="#000000" font-family="sans-serif" font-size="14" lengthAdjust="spacing" textLength="71" x="300.5" y="100.9951">Anuncio C</text><line style="stroke:#A80036;stroke-width:1.0;" x1="295.5" x2="295.5" y1="86" y2="106.2969"/><rect fill="none" height="20.2969" rx="5" ry="5" style="stroke:#A80036;stroke-width:1.5;" width="99" x="277.5" y="86"/><path d="M228,38 L241,38 C256.2426,38 272.6922,35.2267 287.0528,31.8573 " fill="none" style="stroke:#A80036;stroke-width:1.0;stroke-dasharray:3.0,3.0;"/><path d="M287.7748,34.7781 L289.2434,31.3159 L286.3309,28.9366 L294.3547,30.0525 L287.7748,34.7781 " fill="#A80036" style="stroke:#A80036;stroke-width:1.0;"/><ellipse cx="228" cy="38" fill="#A80036" rx="3" ry="3" style="stroke:#A80036;stroke-width:1.0;"/><path d="M228,58 L241,58 C250.253,58 260.0693,58 269.6259,58 " fill="none" style="stroke:#A80036;stroke-width:1.0;stroke-dasharray:3.0,3.0;"/><path d="M269.6259,61.0371 L271.9037,58 L269.6259,54.9629 L277.2187,58 L269.6259,61.0371 " fill="#A80036" style="stroke:#A80036;stroke-width:1.0;"/><ellipse cx="228" cy="58" fill="#A80036" rx="3" ry="3" style="stroke:#A80036;stroke-width:1.0;"/><path d="M228,79 L241,79 C255.3019,79 270.6957,81.3165 284.4263,84.2393 " fill="none" style="stroke:#A80036;stroke-width:1.0;stroke-dasharray:3.0,3.0;"/><path d="M283.7562,87.2151 L286.6581,84.7419 L285.0964,81.2635 L291.8658,85.9146 L283.7562,87.2151 " fill="#A80036" style="stroke:#A80036;stroke-width:1.0;"/><ellipse cx="228" cy="79" fill="#A80036" rx="3" ry="3" style="stroke:#A80036;stroke-width:1.0;"/><path d="M167,59 L180,59 C189.374,59 199.7885,59 208.4714,59 " fill="none" style="stroke:#A80036;stroke-width:1.0;stroke-dasharray:3.0,3.0;"/><path d="M208.4714,62.0815 L210.7825,59 L208.4714,55.9185 L216.1751,59 L208.4714,62.0815 " fill="#A80036" style="stroke:#A80036;stroke-width:1.0;"/><ellipse cx="167" cy="59" fill="#A80036" rx="3" ry="3" style="stroke:#A80036;stroke-width:1.0;"/><path d="M78,59 L91,59 C100.3424,59 110.4832,59 119.7851,59 " fill="none" style="stroke:#A80036;stroke-width:1.0;stroke-dasharray:3.0,3.0;"/><path d="M119.7851,62.0321 L122.0592,59 L119.7851,55.9679 L127.3655,59 L119.7851,62.0321 " fill="#A80036" style="stroke:#A80036;stroke-width:1.0;"/><ellipse cx="78" cy="59" fill="#A80036" rx="3" ry="3" style="stroke:#A80036;stroke-width:1.0;"/><!--MD5=[22e05c31845f2be2f89b16b21fef7169]
@startjson
#highlight "option" / "int" / "0" / "0"
#highlight "option" / "int" / "1" / "1"
#highlight "option" / "int" / "2" / "2"

{"option": { "int": [{"0": "Anuncio A"},{"1": "Anuncio B"},{"2": "Anuncio C"}]}}

@endjson

PlantUML version 1.2020.27beta8(Unknown compile time)
(GPL source distribution)
Java Runtime: Java(TM) SE Runtime Environment
JVM: Java HotSpot(TM) 64-Bit Server VM
Default Encoding: UTF-8
Language: en
Country: US
--></g></svg>