<?xml version="1.0" encoding="UTF-8" standalone="no"?><svg xmlns="http://www.w3.org/2000/svg" xmlns:xlink="http://www.w3.org/1999/xlink" contentScriptType="application/ecmascript" contentStyleType="text/css" height="937px" preserveAspectRatio="none" style="width:821px;height:937px;" version="1.1" viewBox="0 0 821 937" width="821px" zoomAndPan="magnify"><defs><filter height="300%" id="fb8w0p3bi0sic" width="300%" x="-1" y="-1"><feGaussianBlur result="blurOut" stdDeviation="2.0"/><feColorMatrix in="blurOut" result="blurOut2" type="matrix" values="0 0 0 0 0 0 0 0 0 0 0 0 0 0 0 0 0 0 .4 0"/><feOffset dx="4.0" dy="4.0" in="blurOut2" result="blurOut3"/><feBlend in="SourceGraphic" in2="blurOut3" mode="normal"/></filter></defs><g><text fill="#000000" font-family="sans-serif" font-size="18" lengthAdjust="spacingAndGlyphs" textLength="216" x="299.25" y="28.708">Diagrama de secuencia</text><rect fill="#FFFFFF" filter="url(#fb8w0p3bi0sic)" height="191.6641" style="stroke:#000000;stroke-width:2.0;" width="362.5" x="442" y="237.6484"/><rect fill="#FFFFFF" height="87.1016" style="stroke:none;stroke-width:1.0;" width="362.5" x="442" y="342.2109"/><line style="stroke:#008000;stroke-width:1.0;stroke-dasharray:5.0,5.0;" x1="33" x2="33" y1="123.25" y2="853.0391"/><line style="stroke:#008000;stroke-width:1.0;stroke-dasharray:5.0,5.0;" x1="192" x2="192" y1="123.25" y2="853.0391"/><line style="stroke:#008000;stroke-width:1.0;stroke-dasharray:5.0,5.0;" x1="483" x2="483" y1="123.25" y2="853.0391"/><line style="stroke:#008000;stroke-width:1.0;stroke-dasharray:5.0,5.0;" x1="673.5" x2="673.5" y1="410.1641" y2="853.0391"/><line style="stroke:#008000;stroke-width:1.0;stroke-dasharray:5.0,5.0;" x1="747.5" x2="747.5" y1="123.25" y2="853.0391"/><text fill="#000000" font-family="sans-serif" font-size="14" lengthAdjust="spacingAndGlyphs" textLength="51" x="5" y="119.9482">Usuario</text><ellipse cx="33.5" cy="49.9531" fill="#FFFFFF" filter="url(#fb8w0p3bi0sic)" rx="8" ry="8" style="stroke:#708090;stroke-width:2.0;"/><path d="M33.5,57.9531 L33.5,84.9531 M20.5,65.9531 L46.5,65.9531 M33.5,84.9531 L20.5,99.9531 M33.5,84.9531 L46.5,99.9531 " fill="none" filter="url(#fb8w0p3bi0sic)" style="stroke:#708090;stroke-width:2.0;"/><text fill="#000000" font-family="sans-serif" font-size="14" lengthAdjust="spacingAndGlyphs" textLength="51" x="5" y="865.0342">Usuario</text><ellipse cx="33.5" cy="878.3359" fill="#FFFFFF" filter="url(#fb8w0p3bi0sic)" rx="8" ry="8" style="stroke:#708090;stroke-width:2.0;"/><path d="M33.5,886.3359 L33.5,913.3359 M20.5,894.3359 L46.5,894.3359 M33.5,913.3359 L20.5,928.3359 M33.5,913.3359 L46.5,928.3359 " fill="none" filter="url(#fb8w0p3bi0sic)" style="stroke:#708090;stroke-width:2.0;"/><text fill="#000000" font-family="sans-serif" font-size="14" lengthAdjust="spacingAndGlyphs" textLength="33" x="173" y="119.9482">Web</text><path d="M172,78.9531 L172,102.9531 M172,90.9531 L189,90.9531 " fill="none" filter="url(#fb8w0p3bi0sic)" style="stroke:#708090;stroke-width:2.0;"/><ellipse cx="201" cy="90.9531" fill="#FFFFFF" filter="url(#fb8w0p3bi0sic)" rx="12" ry="12" style="stroke:#708090;stroke-width:2.0;"/><text fill="#000000" font-family="sans-serif" font-size="14" lengthAdjust="spacingAndGlyphs" textLength="33" x="173" y="865.0342">Web</text><path d="M172,872.3359 L172,896.3359 M172,884.3359 L189,884.3359 " fill="none" filter="url(#fb8w0p3bi0sic)" style="stroke:#708090;stroke-width:2.0;"/><ellipse cx="201" cy="884.3359" fill="#FFFFFF" filter="url(#fb8w0p3bi0sic)" rx="12" ry="12" style="stroke:#708090;stroke-width:2.0;"/><text fill="#000000" font-family="sans-serif" font-size="14" lengthAdjust="spacingAndGlyphs" textLength="57" x="452" y="119.9482">Servicio</text><ellipse cx="483.5" cy="90.9531" fill="#FFFFFF" filter="url(#fb8w0p3bi0sic)" rx="12" ry="12" style="stroke:#708090;stroke-width:2.0;"/><polygon fill="#708090" points="479.5,78.9531,485.5,73.9531,483.5,78.9531,485.5,83.9531,479.5,78.9531" style="stroke:#708090;stroke-width:1.0;"/><text fill="#000000" font-family="sans-serif" font-size="14" lengthAdjust="spacingAndGlyphs" textLength="57" x="452" y="865.0342">Servicio</text><ellipse cx="483.5" cy="884.3359" fill="#FFFFFF" filter="url(#fb8w0p3bi0sic)" rx="12" ry="12" style="stroke:#708090;stroke-width:2.0;"/><polygon fill="#708090" points="479.5,872.3359,485.5,867.3359,483.5,872.3359,485.5,877.3359,479.5,872.3359" style="stroke:#708090;stroke-width:1.0;"/><text fill="#000000" font-family="sans-serif" font-size="14" lengthAdjust="spacingAndGlyphs" textLength="29" x="656.5" y="865.0342">UCB</text><ellipse cx="674" cy="884.3359" fill="#FFFFFF" filter="url(#fb8w0p3bi0sic)" rx="12" ry="12" style="stroke:#708090;stroke-width:2.0;"/><line style="stroke:#708090;stroke-width:2.0;" x1="662" x2="686" y1="898.3359" y2="898.3359"/><text fill="#000000" font-family="sans-serif" font-size="14" lengthAdjust="spacingAndGlyphs" textLength="87" x="701.5" y="119.9482">Persistencia</text><path d="M730,70.9531 C730,60.9531 748,60.9531 748,60.9531 C748,60.9531 766,60.9531 766,70.9531 L766,96.9531 C766,106.9531 748,106.9531 748,106.9531 C748,106.9531 730,106.9531 730,96.9531 L730,70.9531 " fill="#FFFFFF" filter="url(#fb8w0p3bi0sic)" style="stroke:#708090;stroke-width:1.5;"/><path d="M730,70.9531 C730,80.9531 748,80.9531 748,80.9531 C748,80.9531 766,80.9531 766,70.9531 " fill="none" style="stroke:#708090;stroke-width:1.5;"/><text fill="#000000" font-family="sans-serif" font-size="14" lengthAdjust="spacingAndGlyphs" textLength="87" x="701.5" y="865.0342">Persistencia</text><path d="M730,878.3359 C730,868.3359 748,868.3359 748,868.3359 C748,868.3359 766,868.3359 766,878.3359 L766,904.3359 C766,914.3359 748,914.3359 748,914.3359 C748,914.3359 730,914.3359 730,904.3359 L730,878.3359 " fill="#FFFFFF" filter="url(#fb8w0p3bi0sic)" style="stroke:#708090;stroke-width:1.5;"/><path d="M730,878.3359 C730,888.3359 748,888.3359 748,888.3359 C748,888.3359 766,888.3359 766,878.3359 " fill="none" style="stroke:#708090;stroke-width:1.5;"/><rect fill="#EEEEEE" filter="url(#fb8w0p3bi0sic)" height="3" style="stroke:#EEEEEE;stroke-width:1.0;" width="814.5" x="0" y="153.8164"/><line style="stroke:#000000;stroke-width:1.0;" x1="0" x2="814.5" y1="153.8164" y2="153.8164"/><line style="stroke:#000000;stroke-width:1.0;" x1="0" x2="814.5" y1="156.8164" y2="156.8164"/><rect fill="#EEEEEE" filter="url(#fb8w0p3bi0sic)" height="23.1328" style="stroke:#000000;stroke-width:2.0;" width="114" x="350.25" y="143.25"/><text fill="#000000" font-family="sans-serif" font-size="13" font-weight="bold" lengthAdjust="spacingAndGlyphs" textLength="95" x="356.25" y="159.3169">Inicialización</text><polygon fill="#000000" points="736,206.082,746,210.082,736,214.082,740,210.082" style="stroke:#000000;stroke-width:1.0;"/><line style="stroke:#000000;stroke-width:1.0;" x1="483.5" x2="742" y1="210.082" y2="210.082"/><text fill="#000000" font-family="sans-serif" font-size="13" lengthAdjust="spacingAndGlyphs" textLength="100" x="490.5" y="205.0161">ObtenerValores</text><path d="M306,181.3828 L306,221.3828 L474,221.3828 L474,191.3828 L464,181.3828 L306,181.3828 " fill="#E0FFFF" filter="url(#fb8w0p3bi0sic)" style="stroke:#000000;stroke-width:1.0;"/><path d="M464,181.3828 L464,191.3828 L474,191.3828 L464,181.3828 " fill="#E0FFFF" style="stroke:#000000;stroke-width:1.0;"/><text fill="#000000" font-family="sans-serif" font-size="13" lengthAdjust="spacingAndGlyphs" textLength="143" x="312" y="198.4497">Esto ocurre cuando se</text><text fill="#000000" font-family="sans-serif" font-size="13" lengthAdjust="spacingAndGlyphs" textLength="104" x="312" y="213.5825">inicia el servicio.</text><path d="M442,237.6484 L508,237.6484 L508,244.6484 L498,254.6484 L442,254.6484 L442,237.6484 " fill="#EEEEEE" style="stroke:#000000;stroke-width:1.0;"/><rect fill="none" height="191.6641" style="stroke:#000000;stroke-width:2.0;" width="362.5" x="442" y="237.6484"/><text fill="#000000" font-family="sans-serif" font-size="13" font-weight="bold" lengthAdjust="spacingAndGlyphs" textLength="21" x="457" y="250.7153">alt</text><text fill="#000000" font-family="sans-serif" font-size="11" font-weight="bold" lengthAdjust="spacingAndGlyphs" textLength="235" x="523" y="249.8589">[Valores iniciales guardados en BD]</text><polygon fill="#000000" points="494.5,271.9141,484.5,275.9141,494.5,279.9141,490.5,275.9141" style="stroke:#000000;stroke-width:1.0;"/><line style="stroke:#000000;stroke-width:1.0;stroke-dasharray:2.0,2.0;" x1="488.5" x2="747" y1="275.9141" y2="275.9141"/><text fill="#000000" font-family="sans-serif" font-size="13" lengthAdjust="spacingAndGlyphs" textLength="104" x="500.5" y="270.8481">algorithmValues</text><polygon fill="#000000" points="644.5,301.0469,654.5,305.0469,644.5,309.0469,648.5,305.0469" style="stroke:#000000;stroke-width:1.0;"/><line style="stroke:#000000;stroke-width:1.0;" x1="483.5" x2="650.5" y1="305.0469" y2="305.0469"/><text fill="#000000" font-family="sans-serif" font-size="13" lengthAdjust="spacingAndGlyphs" textLength="149" x="490.5" y="299.981">Crear(algorithmValues)</text><text fill="#000000" font-family="sans-serif" font-size="14" lengthAdjust="spacingAndGlyphs" textLength="29" x="656.5" y="328.9092">UCB</text><ellipse cx="674" cy="299.9141" fill="#FFFFFF" filter="url(#fb8w0p3bi0sic)" rx="12" ry="12" style="stroke:#708090;stroke-width:2.0;"/><line style="stroke:#708090;stroke-width:2.0;" x1="662" x2="686" y1="313.9141" y2="313.9141"/><line style="stroke:#000000;stroke-width:1.0;stroke-dasharray:2.0,2.0;" x1="442" x2="804.5" y1="343.2109" y2="343.2109"/><text fill="#000000" font-family="sans-serif" font-size="11" font-weight="bold" lengthAdjust="spacingAndGlyphs" textLength="192" x="447" y="353.4214">[No existen valores iniciales]</text><polygon fill="#000000" points="494.5,359.0156,484.5,363.0156,494.5,367.0156,490.5,363.0156" style="stroke:#000000;stroke-width:1.0;"/><line style="stroke:#000000;stroke-width:1.0;stroke-dasharray:2.0,2.0;" x1="488.5" x2="747" y1="363.0156" y2="363.0156"/><polygon fill="#000000" points="644.5,388.1484,654.5,392.1484,644.5,396.1484,648.5,392.1484" style="stroke:#000000;stroke-width:1.0;"/><line style="stroke:#000000;stroke-width:1.0;" x1="483.5" x2="650.5" y1="392.1484" y2="392.1484"/><text fill="#000000" font-family="sans-serif" font-size="13" lengthAdjust="spacingAndGlyphs" textLength="45" x="490.5" y="387.0825">Crear()</text><text fill="#000000" font-family="sans-serif" font-size="14" lengthAdjust="spacingAndGlyphs" textLength="29" x="656.5" y="416.0107">UCB</text><ellipse cx="674" cy="387.0156" fill="#FFFFFF" filter="url(#fb8w0p3bi0sic)" rx="12" ry="12" style="stroke:#708090;stroke-width:2.0;"/><line style="stroke:#708090;stroke-width:2.0;" x1="662" x2="686" y1="401.0156" y2="401.0156"/><rect fill="#EEEEEE" filter="url(#fb8w0p3bi0sic)" height="3" style="stroke:#EEEEEE;stroke-width:1.0;" width="814.5" x="0" y="456.8789"/><line style="stroke:#000000;stroke-width:1.0;" x1="0" x2="814.5" y1="456.8789" y2="456.8789"/><line style="stroke:#000000;stroke-width:1.0;" x1="0" x2="814.5" y1="459.8789" y2="459.8789"/><rect fill="#EEEEEE" filter="url(#fb8w0p3bi0sic)" height="23.1328" style="stroke:#000000;stroke-width:2.0;" width="144" x="335.25" y="446.3125"/><text fill="#000000" font-family="sans-serif" font-size="13" font-weight="bold" lengthAdjust="spacingAndGlyphs" textLength="125" x="341.25" y="462.3794">Obtener anuncio</text><polygon fill="#000000" points="180.5,496.5781,190.5,500.5781,180.5,504.5781,184.5,500.5781" style="stroke:#000000;stroke-width:1.0;"/><line style="stroke:#000000;stroke-width:1.0;" x1="33.5" x2="186.5" y1="500.5781" y2="500.5781"/><text fill="#000000" font-family="sans-serif" font-size="13" lengthAdjust="spacingAndGlyphs" textLength="126" x="40.5" y="495.5122">Ingresar a la página</text><polygon fill="#000000" points="471.5,525.7109,481.5,529.7109,471.5,533.7109,475.5,529.7109" style="stroke:#000000;stroke-width:1.0;"/><line style="stroke:#000000;stroke-width:1.0;" x1="192.5" x2="477.5" y1="529.7109" y2="529.7109"/><text fill="#000000" font-family="sans-serif" font-size="13" lengthAdjust="spacingAndGlyphs" textLength="155" x="199.5" y="524.645">obtenerOpcionAnuncio()</text><polygon fill="#000000" points="662,554.8438,672,558.8438,662,562.8438,666,558.8438" style="stroke:#000000;stroke-width:1.0;"/><line style="stroke:#000000;stroke-width:1.0;" x1="483.5" x2="668" y1="558.8438" y2="558.8438"/><text fill="#000000" font-family="sans-serif" font-size="13" lengthAdjust="spacingAndGlyphs" textLength="48" x="490.5" y="553.7778">select()</text><polygon fill="#000000" points="494.5,583.9766,484.5,587.9766,494.5,591.9766,490.5,587.9766" style="stroke:#000000;stroke-width:1.0;"/><line style="stroke:#000000;stroke-width:1.0;stroke-dasharray:2.0,2.0;" x1="488.5" x2="673" y1="587.9766" y2="587.9766"/><text fill="#000000" font-family="sans-serif" font-size="13" lengthAdjust="spacingAndGlyphs" textLength="26" x="500.5" y="582.9106">arm</text><polygon fill="#000000" points="203.5,613.1094,193.5,617.1094,203.5,621.1094,199.5,617.1094" style="stroke:#000000;stroke-width:1.0;"/><line style="stroke:#000000;stroke-width:1.0;stroke-dasharray:2.0,2.0;" x1="197.5" x2="482.5" y1="617.1094" y2="617.1094"/><text fill="#000000" font-family="sans-serif" font-size="13" lengthAdjust="spacingAndGlyphs" textLength="44" x="209.5" y="612.0435">Opcion</text><polygon fill="#000000" points="44.5,642.2422,34.5,646.2422,44.5,650.2422,40.5,646.2422" style="stroke:#000000;stroke-width:1.0;"/><line style="stroke:#000000;stroke-width:1.0;stroke-dasharray:2.0,2.0;" x1="38.5" x2="191.5" y1="646.2422" y2="646.2422"/><text fill="#000000" font-family="sans-serif" font-size="13" lengthAdjust="spacingAndGlyphs" textLength="105" x="50.5" y="641.1763">Muestra anuncio</text><rect fill="#EEEEEE" filter="url(#fb8w0p3bi0sic)" height="3" style="stroke:#EEEEEE;stroke-width:1.0;" width="814.5" x="0" y="674.8086"/><line style="stroke:#000000;stroke-width:1.0;" x1="0" x2="814.5" y1="674.8086" y2="674.8086"/><line style="stroke:#000000;stroke-width:1.0;" x1="0" x2="814.5" y1="677.8086" y2="677.8086"/><rect fill="#EEEEEE" filter="url(#fb8w0p3bi0sic)" height="23.1328" style="stroke:#000000;stroke-width:2.0;" width="168" x="323.25" y="664.2422"/><text fill="#000000" font-family="sans-serif" font-size="13" font-weight="bold" lengthAdjust="spacingAndGlyphs" textLength="149" x="329.25" y="680.3091">Seleccionar anuncio</text><polygon fill="#000000" points="180.5,714.5078,190.5,718.5078,180.5,722.5078,184.5,718.5078" style="stroke:#000000;stroke-width:1.0;"/><line style="stroke:#000000;stroke-width:1.0;" x1="33.5" x2="186.5" y1="718.5078" y2="718.5078"/><text fill="#000000" font-family="sans-serif" font-size="13" lengthAdjust="spacingAndGlyphs" textLength="135" x="40.5" y="713.4419">Hacer clic en anuncio</text><polygon fill="#000000" points="471.5,743.6406,481.5,747.6406,471.5,751.6406,475.5,747.6406" style="stroke:#000000;stroke-width:1.0;"/><line style="stroke:#000000;stroke-width:1.0;" x1="192.5" x2="477.5" y1="747.6406" y2="747.6406"/><text fill="#000000" font-family="sans-serif" font-size="13" lengthAdjust="spacingAndGlyphs" textLength="267" x="199.5" y="742.5747">AsignarRecompensa(opcion, reconpensa)</text><polygon fill="#000000" points="662,772.7734,672,776.7734,662,780.7734,666,776.7734" style="stroke:#000000;stroke-width:1.0;"/><line style="stroke:#000000;stroke-width:1.0;" x1="483.5" x2="668" y1="776.7734" y2="776.7734"/><text fill="#000000" font-family="sans-serif" font-size="13" lengthAdjust="spacingAndGlyphs" textLength="134" x="490.5" y="771.7075">reward(arm, reward)</text><polygon fill="#000000" points="494.5,801.9063,484.5,805.9063,494.5,809.9063,490.5,805.9063" style="stroke:#000000;stroke-width:1.0;"/><line style="stroke:#000000;stroke-width:1.0;stroke-dasharray:2.0,2.0;" x1="488.5" x2="673" y1="805.9063" y2="805.9063"/><text fill="#000000" font-family="sans-serif" font-size="13" lengthAdjust="spacingAndGlyphs" textLength="104" x="500.5" y="800.8403">algorithmValues</text><polygon fill="#000000" points="736,831.0391,746,835.0391,736,839.0391,740,835.0391" style="stroke:#000000;stroke-width:1.0;"/><line style="stroke:#000000;stroke-width:1.0;" x1="483.5" x2="742" y1="835.0391" y2="835.0391"/><text fill="#000000" font-family="sans-serif" font-size="13" lengthAdjust="spacingAndGlyphs" textLength="214" x="490.5" y="829.9731">GuardarValores(algorithmValues)</text><!--MD5=[3c6cf52aadbe653d1fed0dc0e1bd25e4]
@startuml
!include https://gist.githubusercontent.com/cccg8105/4054e13aa1139ab583f7be54fb5c6960/raw/3c760a2f5d568343272174d35741e4a7f2741b5e/styles.puml
title Diagrama de secuencia

actor Usuario
boundary Web
control Servicio
entity UCB
database Persistencia

== Inicialización ==
Servicio -> Persistencia : ObtenerValores
note left
Esto ocurre cuando se 
inicia el servicio.
end note

alt Valores iniciales guardados en BD 
Persistencia - -> Servicio : algorithmValues
create UCB
Servicio -> UCB: Crear(algorithmValues)
else No existen valores iniciales
Persistencia - -> Servicio
create UCB
Servicio -> UCB: Crear()
end


== Obtener anuncio ==
Usuario -> Web : Ingresar a la página
Web -> Servicio : obtenerOpcionAnuncio()
Servicio -> UCB : select()
UCB - -> Servicio : arm
Servicio - -> Web : Opcion
Web - -> Usuario : Muestra anuncio

== Seleccionar anuncio ==
Usuario -> Web : Hacer clic en anuncio
Web -> Servicio : AsignarRecompensa(opcion, reconpensa)
Servicio -> UCB : reward(arm, reward)
UCB - -> Servicio : algorithmValues
Servicio -> Persistencia : GuardarValores(algorithmValues)
@enduml

@startuml
skinparam usecase {
  backgroundColor skyblue
  BorderColor skyblue
  BackgroundColor<< Correct >> lightgreen
  BorderColor<< Correct >> lightgreen
  ArrowColor black
  ActorBorderColor black
  ActorFontName Courier
  BackgroundColor<< Error >> Antiquewhite
  BorderColor<< Error >> Antiquewhite
}
skinparam sequence {
  LifeLineBorderColor Green
  ArrowColor black
  ParticipantBorderColor black
  ParticipantBackgroundColor GreenYellow
  ParticipantFontColor black
}
skinparam actor {
  backgroundColor white
  borderColor slategray
}

skinparam entity {
  backgroundColor white
  borderColor slategray
}

skinparam state {
  StartColor green
  EndColor Red
  BackgroundColor white
  BackgroundColor<<Warning>> Olive
  BorderColor black
  ArrowColor Olive
  BarColor green
}
skinparam activity {
  StartColor green
  BarColor black
  EndColor red
  BackgroundColor white
  DiamondBackgroundColor white
  DiamondBorderColor red
  BorderColor black
  ArrowColor black
}
skinparam cloud {
  borderColor lightgray
  backgroundColor white
}
skinparam node {
  borderColor black
  backgroundColor Yellow
}
skinparam interface {
  borderColor black
  backgroundColor lime
}
skinparam component {
  borderColor slategray
  backgroundColor white
}
skinparam file {
  borderColor black
  backgroundColor white
}
skinparam queue {
  borderColor black
  backgroundColor springgreen
}
skinparam database {
  borderColor slategray
  backgroundColor white
}
skinparam agent {
  borderColor black
  backgroundColor white
}
skinparam rectangle {
  borderColor black
  backgroundColor white
}
skinparam card {
  borderColor black
  backgroundColor white
}
skinparam note {
  borderColor black
  backgroundColor lightCyan
}
skinparam title {
  FontSize 18
}

skinparam class {
  BackgroundColor white
  ArrowColor black
  BorderColor black
}

skinparam boundary {
  BackgroundColor white
  ArrowColor black
  BorderColor slategray
}

skinparam control {
  BackgroundColor white
  ArrowColor black
  BorderColor slategray
}

skinparam package {
  borderColor slategray
}

title Diagrama de secuencia

actor Usuario
boundary Web
control Servicio
entity UCB
database Persistencia

== Inicialización ==
Servicio -> Persistencia : ObtenerValores
note left
Esto ocurre cuando se 
inicia el servicio.
end note

alt Valores iniciales guardados en BD 
Persistencia - -> Servicio : algorithmValues
create UCB
Servicio -> UCB: Crear(algorithmValues)
else No existen valores iniciales
Persistencia - -> Servicio
create UCB
Servicio -> UCB: Crear()
end


== Obtener anuncio ==
Usuario -> Web : Ingresar a la página
Web -> Servicio : obtenerOpcionAnuncio()
Servicio -> UCB : select()
UCB - -> Servicio : arm
Servicio - -> Web : Opcion
Web - -> Usuario : Muestra anuncio

== Seleccionar anuncio ==
Usuario -> Web : Hacer clic en anuncio
Web -> Servicio : AsignarRecompensa(opcion, reconpensa)
Servicio -> UCB : reward(arm, reward)
UCB - -> Servicio : algorithmValues
Servicio -> Persistencia : GuardarValores(algorithmValues)
@enduml

PlantUML version 1.2020.24(Fri Dec 18 17:00:36 UTC 2020)
(GPL source distribution)
Java Runtime: Java(TM) SE Runtime Environment
JVM: Java HotSpot(TM) 64-Bit Server VM
Default Encoding: UTF-8
Language: en
Country: US
--></g></svg>